<svg xmlns="http://www.w3.org/2000/svg" xmlns:xlink="http://www.w3.org/1999/xlink" viewBox="0 0 4000.56 5048.03"><defs><style>.cls-1{fill:#060301;}.cls-2{fill:#7d5443;}.cls-3{fill:#e94c44;}.cls-4{fill:#f7af78;}.cls-5{fill:#c33331;}.cls-6{fill:#fdcfa6;}.cls-7{fill:#9a6b53;}.cls-8{fill:#2b4d91;}.cls-9{fill:url(#Degradado_sin_nombre);}.cls-10{fill:#4068b4;}.cls-11{fill:#fefefa;}.cls-12{fill:#20324f;}.cls-13{fill:#191a24;}</style><linearGradient id="Degradado_sin_nombre" x1="3144.76" y1="-863.86" x2="3157.83" y2="-936" gradientTransform="translate(-16708.22 6895.96) scale(5.78)" gradientUnits="userSpaceOnUse"><stop offset="0" stop-color="#e99c5f"/><stop offset="1" stop-color="#fdd0a7"/></linearGradient></defs><g id="Capa_2" data-name="Capa 2"><g id="Capa_1-2" data-name="Capa 1"><path class="cls-1" d="M1582.94,3206.73c32.11,188.9,66.9,378.1,114.61,563.7l12.69,50.6c4,10.6,8.11,21.2,12.2,31.8,26.7,68.1,65.9,85.2,129.4,113l1.4,441.3c-.1,67.1-8.1,171.7,4.7,234.8,6.1,30.2,21.5,57.3,38.6,82.5-20,38-33.5,79.3-34.6,122.4-1.4,51.3,16.5,98.9,52,136.1,2.4,2.5,4.9,4.9,7.5,7.3s5.2,4.7,7.8,6.9,5.4,4.4,8.2,6.6,5.6,4.2,8.5,6.1,5.8,3.9,8.8,5.7,6,3.6,9,5.3,6.2,3.3,9.3,4.8,6.3,3,9.5,4.4,6.5,2.7,9.7,3.9,6.6,2.3,9.9,3.4,6.7,2,10.1,2.9,6.8,1.7,10.2,2.4,6.9,1.3,10.3,1.9,6.9,1,10.4,1.4,7,.7,10.4.9,7,.3,10.5.4c69.1.7,130.6-31.6,178.5-79.7,70.3-70.5,141-209.9,159.4-308.7,12.4-66.1,5.3-140.7,5.4-208l.9-381.9c30.8.4,61.7.6,92.5.6l.4,365.9c-.1,69.9-6.6,146.5,4.6,215.5,7.8,48.1,26.8,95.8,47,139.9,44.2,96.4,109.8,205.8,214.8,243.9,3.4,1.2,6.9,2.4,10.3,3.5s7,2.1,10.5,3,7.1,1.7,10.6,2.4,7.1,1.4,10.7,1.9,7.2,1,10.8,1.4,7.2.6,10.9.8,7.3.3,10.9.3,7.3-.1,10.9-.3,7.3-.5,10.9-.8,7.2-.8,10.8-1.4,7.2-1.2,10.7-1.9,7.1-1.5,10.6-2.4,7-1.9,10.5-3,6.9-2.2,10.3-3.5,6.8-2.6,10.1-4,6.7-2.9,9.9-4.5c2.9-1.4,5.9-2.9,8.7-4.5s5.7-3.2,8.5-4.9,5.5-3.5,8.2-5.3,5.4-3.7,8-5.7,5.2-4,7.7-6.1,5-4.3,7.4-6.5,4.7-4.5,7-6.8,4.5-4.7,6.7-7.2,4.3-4.9,6.3-7.5,4-5.2,5.9-7.8,3.8-5.4,5.5-8.1,3.5-5.5,5.1-8.4,3.2-5.7,4.7-8.6,2.9-5.9,4.3-8.8,2.6-6,3.8-9,2.3-6.1,3.4-9.2c21.9-64.2,9.7-127.1-19.1-186.6,15.9-30,29.6-59.5,34.7-93.4,10.4-69.1,2.4-153.3,2.3-224.2l1.1-427.9c42.6-18,85.9-37.2,122.3-66.4,42-98.8,73.4-269.1,95.1-377.8,26.5,53.4,51.3,108,76.1,162.1,17.5,38.3,32.8,82.2,58.5,115.6,10.4,13.5,21.7,21,36.1,29.5,8.2,33,21.8,65.3,38.2,95-6.7,46-19.8,89.6-41.2,130.9-16.7,32.1-56,71.2-59.6,106.7-1.8,17.3,5.9,34,17.3,46.7a82.14,82.14,0,0,0,5.8,6,64.25,64.25,0,0,0,6.4,5.3c2.2,1.7,4.5,3.2,6.9,4.7a74.29,74.29,0,0,0,7.3,4,83.56,83.56,0,0,0,23.9,7.2,77.67,77.67,0,0,0,8.3.8c36.1,1.4,66.2-19.7,92-42.3-.5,83.7-1,245.7,50.6,312.9,12.6,16.4,28.7,29.7,49.9,31.9,25,2.6,48.7-11.2,67.5-26.1,14.6,14.3,34.4,27.7,55.5,28.7,27.7,1.4,49.9-21.4,68.6-38.8,12.5-2,25.2-3.7,36.9-8.8,25.7-11.1,40.3-31.2,50.8-56.3,9.8-4.2,19.9-8.7,28.7-14.8,20.1-13.9,26.5-35.9,31.4-58.7,16.3-77,14.7-290.2-18.1-359.7-27.1-57.6-72.7-108.5-107.5-161.8,3.5-44.3.5-82.1-8.9-125.6,4.2-7.8,9.1-16.2,11.6-24.7,9.7-32.3,1.9-79.4-1.8-113.1-25.1-231.6-108.8-447.1-209.2-655.3l-21-42.7c-24-37.7-45.6-77-69.8-114.6-77.8-120.9-165.2-225.8-272.1-322.1l-55.09-41.1c14.8-75.5,10.69-134.6-33.7-200.6-20.11-29.9-46.4-51.2-74.9-72.7,46.6-62,82.6-122.7,113.3-194.2,73.4,23.6,143.8,25.4,214-10.1,4.1-2.1,8.2-4.3,12.2-6.6s7.9-4.7,11.8-7.2,7.7-5.1,11.5-7.8,7.4-5.5,11.1-8.3,7.2-5.8,10.6-8.9,6.9-6.2,10.2-9.4,6.6-6.5,9.7-9.9,6.2-6.8,9.2-10.3,5.9-7.1,8.7-10.8,5.5-7.4,8.2-11.2,5.2-7.7,7.6-11.6,4.8-7.9,7-11.9,4.4-8.1,6.4-12.3,4-8.3,5.8-12.6,3.6-8.5,5.2-12.9,3.2-8.7,4.6-13.1c23.4-71.9,26.4-158.6-8.7-227.3-22.7-44.4-57.5-74.6-102.2-95.5,14.9-87.1,21.8-176.1,33-263.7,26.1-204,71.8-404.7-56.7-587.1-60-85.2-143.3-144.5-246-165-94.1-192.3-217.5-313.5-422.8-384-261.8-89.9-576-59.6-823.2,62.4-231.1,114.1-412.3,307.1-495,552.6-54.4,161.8-50.4,335.1-50.8,503.7q-.3,140.7.8,281.3c-61.7,36.7-104.4,88.4-122,159q-1.65,6.75-3,13.5c-.9,4.5-1.6,9.1-2.3,13.6s-1.2,9.1-1.6,13.7-.7,9.2-.9,13.8-.3,9.2-.2,13.8.2,9.2.5,13.8.7,9.2,1.2,13.8,1.1,9.2,1.8,13.7,1.6,9.1,2.5,13.6,2,9,3.2,13.5,2.5,8.9,3.9,13.3,2.9,8.8,4.5,13.1,3.3,8.6,5.2,12.8,3.8,8.4,5.8,12.6,4.2,8.2,6.4,12.2,4.6,8,7,11.9c40.4,65.4,107.9,117.3,183.4,134.3,5.7,1.2,11.4,2.3,17.1,3.2s11.5,1.6,17.3,2.1,11.6.9,17.4,1.1,11.6.2,17.4.1,11.6-.5,17.4-1,11.6-1.2,17.3-2,11.5-1.9,17.2-3.1,11.3-2.6,17-4.1c37.3,70.3,74.7,129.5,124.2,191.7-39.7,37.2-72.3,75.5-91.6,126.9-281.6-38.7-468.1-206.6-633-424.6q-68.4-91.35-129.2-187.9c-19.5-30.8-36.2-64.5-57.6-93.9-4.6-6.3-9-13.1-17.2-14.6-8-1.5-13.7-.1-20.2,4.7-6.1,4.5-11.7,12.4-16.1,18.5-10.3-13.5-21.4-26.8-30.7-41,13.5-29.3,25.6-57.4,31.9-89.2,10.2-51,3.6-102.8,10.2-154.1,8.3-64.2,59.2-180.6,39.8-235.2-8.6-24.2-26.7-42.5-50-52.9a86.58,86.58,0,0,0-8.9-3.5c-3-1-6.1-1.9-9.2-2.6s-6.2-1.2-9.4-1.6-6.3-.6-9.5-.7-6.3.1-9.5.3-6.3.7-9.4,1.3-6.2,1.4-9.2,2.3-6,2-9,3.2c-26.5,10.8-44.2,31.5-54.4,57.9-8.2,21.2-11.4,43.9-15,66.3-25-66.6-42.7-136-62.4-204.4-10.3-35.5-18.6-76.5-36.6-109.1a72.32,72.32,0,0,0-4-6.6c-1.4-2.2-2.9-4.2-4.5-6.3s-3.3-4-5-5.9-3.6-3.7-5.5-5.4-3.9-3.4-5.9-5a71.67,71.67,0,0,0-6.3-4.5c-2.2-1.4-4.4-2.7-6.7-3.9s-4.6-2.3-7-3.3c-22.9-10-49.8-10.7-72.9-1.2-23.6,9.7-40.9,28.9-54.3,50-15.3-30.4-32.2-55-66.3-66.2-1.6-.5-3.2-1-4.9-1.4l-4.9-1.2a40.14,40.14,0,0,0-5-.9c-1.7-.3-3.3-.5-5-.7s-3.4-.3-5-.4-3.4-.1-5.1-.1-3.4,0-5.1.1-3.4.2-5,.4l-5,.6-5,.9a43.7,43.7,0,0,0-4.9,1.2c-1.6.4-3.2.9-4.9,1.4s-3.2,1.1-4.8,1.7-3.1,1.2-4.7,1.9-3.1,1.4-4.6,2.2l-4.5,2.4c-26.5,15.1-42.7,40.7-49.9,69.9-.8,3.2-1.5,6.5-2.1,9.8-34.7-5.8-68.9-8.1-99,14.1-19.9,14.7-31.9,37.7-34.3,62.2-3.6,37,12.8,66.1,30.9,96.6-34,4.5-64.2,12.5-86.7,40.8-12.5,15.7-21.6,39.9-18.4,60.2,2.6,16.5,9.3,32.6,16.7,47.5,39.9,80.1,90,157.5,134.9,235,36.8,63.4,71,134,114.7,192.5,20.5,27.4,47.1,50.5,75.3,69.8,16.3,11.2,33.8,20.9,51,30.6a622.63,622.63,0,0,0,22.9,67.9c-10,3-16.7,4.5-23.5,12.7-4.4,11.3-4.2,20.8-1.8,32.7,8.5,42.4,46.5,129.3,65.1,171.1,145.5,328.1,398.2,625.1,686.9,836.3a2325.32,2325.32,0,0,0,249.8,156.2c55.8,30.8,111.7,62.9,170.3,88.1,2.4,33.2,6.3,66,10.4,98.9Z"/><path class="cls-2" d="M2602.15,4787.73c12.7,7.4,25.5,14.7,38.9,20.8,90,41.1,175.5,37,266.6,2.8-9.1,17.9-32.3,28-50.7,33.7-50.2,15.4-106.4,14.3-157.4,4-14.8-3-67.1-22.8-76.2-20.7C2614.55,4816,2608.65,4801.33,2602.15,4787.73Z"/><path class="cls-2" d="M1918.55,4784.43l9.1-25.2c58.8,56.7,132.3,82.4,213.9,80.6,62.6-1.4,115.69-24.1,170.8-51.4-9.3,16.7-18,34.2-29.3,49.6-20.5.7-52.4,16.8-74.5,21.7-71.5,16.2-160.7,5.7-224.81-30.6-22.6-12.8-41.1-29.8-62.89-43.3Z"/><path class="cls-3" d="M3817.55,3772.93c7.89,16,8.7,37.2,10.2,54.8l-5.1,4.5c-64.9,54.3-209.3,95.4-292.6,86.1-8.31-.9-9.31-1-14.31-7.2l-19-51.8c14.2,2.9,28.9,3.7,43.4,4.5C3636.25,3868.93,3745.55,3838.23,3817.55,3772.93Z"/><path class="cls-4" d="M2336.15,2437.53c82.4,10,160.4,9,242.9,1.7-20.5,20.1-45.7,41.9-59.2,67.4-21.2,22.8-39.11,55.9-49.61,85.1-7.8,11.5-13,29-18.3,42.1C2426.85,2559.43,2384.85,2498.13,2336.15,2437.53Z"/><path class="cls-5" d="M759.64,1570.33c13,17.3,25.81,33.7,40.31,49.8-97.2,88.4-183.6,141-315.7,159.5a43.09,43.09,0,0,1-11.8-2.7c-11.4-20.7-19.1-44.5-28.7-66.2,16.3.7,32.7,1.2,49,.4C598.14,1706.63,690.64,1646.23,759.64,1570.33Z"/><path class="cls-6" d="M3315.05,1496.93c4.6-1.7,9.19-3.3,14-4.7,52.3-15.9,107.89-18.1,156.89,9.2,45.61,25.4,64.4,65.3,77.9,112.9l-17.7,5.9c-9.5,3.2-13,5.2-18.4,14-17-7.6-32.6-11.6-51.3-12.2-68.3-2.2-126.39,29.9-174.7,75.6C3309.44,1630.93,3312.85,1564,3315.05,1496.93Z"/><path class="cls-7" d="M1918.55,4784.43l2.3,1.4c21.7,13.5,40.3,30.5,62.89,43.3,64.11,36.3,153.31,46.8,224.81,30.6,22.1-5,54-21,74.5-21.7-24.9,53.7-72.81,111-125,140.1-42.7,23.8-92.61,31.1-139.81,17.3-40.1-11.7-74.69-38.5-94-75.8C1901.94,4876.43,1904.15,4829.13,1918.55,4784.43Z"/><path class="cls-5" d="M1787.44,2573.63c42.61,39.3,86.7,71.7,139.2,96.8,149.3,71.6,341.7,81.6,505.1,81.9l.4,87.2c-191.4-1.2-414.7-17.7-564-151.4C1842.15,2664.93,1789.55,2610.33,1787.44,2573.63Z"/><path class="cls-7" d="M2907.65,4811.33c29.2-15.4,55.8-32.2,81.6-52.8,18,55.4,23.6,109.1-4.8,162.5-20.3,38.2-53.5,65.3-95.3,76.9-47.3,13.1-96.6,4.7-138.4-20.3-53.7-32.1-101.2-93.2-127.4-149.2,9-2.1,61.3,17.7,76.2,20.7,51.1,10.4,107.2,11.5,157.4-4C2875.44,4839.33,2898.55,4829.23,2907.65,4811.33Z"/><path class="cls-5" d="M752.64,2371.23c3.2.5,6.6.4,9.6,1.5,5.1,1.7,132.81,124,155,142.7q62.55,52.8,128.2,101.7t134,93.9q68.4,45,139.4,85.7t144.3,77.2c28.1,14.1,73.1,41.5,104,43.4-9.7,26.5-6,61.1-5.9,89.1C1249.14,2859.23,962.64,2646.93,752.64,2371.23Z"/><path class="cls-8" d="M1813.94,2179.83c98.3,99.5,212.7,172.1,345.5,216.4,31.11,10.4,78.61,15,104.61,31.1,38.19,23.7,68.89,71.5,93.89,108.4-20.3-.5-60.8-25.6-82.6-33.3-101.4-35.5-203.9-55.9-299.1-109-14.5-8.1-29.3-16.4-42.7-26.3-25.1-18.5-57.5-55.8-90.1-57.4-11.3-.6-21.2,5.1-29.2,12.5-41.9,38.6-36.4,111.2-38.3,162.3-34.9-48.4-56.3-117.3-46.5-177,8.3-50.8,39.2-96.5,81.4-125.5C1811.85,2181.23,1812.94,2180.53,1813.94,2179.83Z"/><path class="cls-4" d="M3563.85,1614.33c11.7,75.1-.4,156.3-46.2,218.6-2.2,3-4.5,6-6.8,8.9s-4.8,5.8-7.3,8.6-5.11,5.5-7.7,8.2-5.3,5.3-8.11,7.8-5.6,5-8.5,7.4-5.8,4.7-8.8,6.9-6.1,4.4-9.2,6.5-6.3,4.1-9.5,6-6.5,3.8-9.8,5.5-6.7,3.4-10.1,5-6.8,3.1-10.3,4.5-7,2.7-10.5,4-7.1,2.4-10.7,3.5-7.2,2-10.9,2.9-7.3,1.7-11,2.4-7.39,1.3-11.1,1.8c-37.4,5.3-73-.3-108.6-12.2,30.6-102.2,15.2-174.7,121.5-232.4,19.3-10.5,41.7-20.5,63.4-24.8,20.9-4.2,72.1-1.5,87.1-10.5-1.1-6.5,0-3.6-3-8.6,5.3-8.8,8.9-10.9,18.4-14Z"/><path class="cls-5" d="M3222.65,2463.13a377.7,377.7,0,0,1,45.3,31c-103.1,176.9-207.6,254.9-406,306.9-134.3,35.2-245.9,37-383.5,35.9v264c0,44.2,3.9,91.9-1.3,135.6-5.3-57.5-1.8-118.6-1.8-176.4l.7-309.3c134.3,3.6,276,11.5,406.1-25.7C3029.15,2683.13,3148.15,2597.73,3222.65,2463.13Z"/><path class="cls-8" d="M2888.35,2355.43c80.89-54.3,154.8-104.6,218.89-179.8,50.5,46.7,90.11,98.1,92.61,169.6,2.6,74.5-39.4,143.9-88.9,196.3-104.8,111.2-263.6,163.1-413.6,167.5-18.4.5-36.9.3-55.3-.1,127.8-19.4,295.3-73.5,380.69-174.4,23.7-28,48.7-67.5,44.31-105.6-4-35.5-26.7-71-54.5-92.5C2970.44,2336.63,2929.44,2356.83,2888.35,2355.43Z"/><path class="cls-9" d="M1489,1478.43c13.69-1.6,27.1-2.4,40.8-.5,26.7,3.5,44.7,16.9,60.9,37.6-.5,57.9-1.4,115.4,3.1,173.2a194.91,194.91,0,0,0-34.5-37.5c-26.2-21.6-60.1-38.4-94.9-33.8-28.6,3.8-43,18.5-59.4,40.1,37.7-9.9,73-14.8,109.2,4.4,66,34.9,87.6,108.7,106.8,175.1,7.8,27.3,16.9,54.1,26.1,81-67.2,11.7-125.6,6.9-185.1-28.8q-5.4-3.15-10.5-6.6c-3.5-2.3-6.8-4.6-10.2-7.1s-6.6-5-9.8-7.6-6.4-5.3-9.4-8.1-6.1-5.6-9-8.5-5.8-5.9-8.6-8.9-5.5-6.2-8.1-9.4-5.2-6.4-7.7-9.8-4.9-6.7-7.2-10.1-4.5-6.9-6.7-10.5-4.2-7.1-6.1-10.8-3.8-7.3-5.6-11.1-3.5-7.5-5-11.3-3.1-7.7-4.5-11.6-2.7-7.8-3.9-11.8-2.3-7.9-3.3-12c-14.3-59-6.8-124.1,25.5-176C1398.74,1514.93,1440.24,1489.83,1489,1478.43Z"/><path class="cls-5" d="M3354.44,2935.33c5.9,16.1-.7,31.9,7.11,48.6,79.3,170.7,128.89,392.9,159.6,578.1,4.7,28.3,27.3,253.4,30.8,258.6l9.8,2.8c-22.8,2.6-48.5-.6-70.4-7.5-16.5-5.2-32-12.6-43.3-26-24.9-29.4-40.4-71.9-56.7-106.5-33.8-71.9-64.9-145.9-101.6-216.3C3321.94,3290.53,3348.44,3114.93,3354.44,2935.33Z"/><path class="cls-8" d="M2546.15,4067.73q29.85-.3,59.5-1.7t59.4-3.9q29.7-2.55,59.19-6.1c19.7-2.4,39.4-5.1,59-8.3s39.2-6.6,58.61-10.4,38.89-8,58.2-12.6,38.6-9.5,57.69-14.7,38.2-10.9,57.11-16.9c-.11,37.8,1.5,76.6-1.5,114.3l-3-6.3c-31.3,6.3-64,26.6-93.8,38.8-68.61,27.9-174.61,53.9-248.2,55.4.1,190.4,6.2,386.3-3,575.9-25.11-12.8-48.8-27-68.9-47-18.6-18.4-35.7-43-42.3-68.6-15.5-60.1-7.7-159.5-7.7-224.3Z"/><path class="cls-8" d="M1896.94,3981c151.11,57.1,304.8,77.1,465.3,85.8l.4,368.5c.2,63.3,7.9,158.7-5.5,217.9-6.4,28.3-21.1,51.5-41.6,71.7-19.5,19.3-42.6,34.5-66.9,46.8-7.7-50.4-2.4-125.3-2.5-177.7l.3-395.7c-123.6-11.5-235.1-43.9-346.39-98.3l.3,323.4c0,58.7,2.1,118.3-1.2,176.9-8.4-66.7-1.9-162.2-1.6-231.2C1897.94,4239.73,1895.65,4110.33,1896.94,3981Z"/><path class="cls-10" d="M2888.35,2355.43c41.1,1.5,82.1-18.8,124.39-18.9,27.7,21.6,50.4,57,54.5,92.5,4.31,38-20.6,77.6-44.3,105.6-85.5,100.8-253,155-380.7,174.4q-84.9,2.1-169.89,1.1c32.1-121.9,87.3-193.7,178.89-277.2C2734.24,2416.83,2812.05,2392.33,2888.35,2355.43Z"/><path class="cls-10" d="M1775.94,2484.43c1.9-51.1-3.5-123.7,38.3-162.3,8-7.4,18-13.1,29.2-12.5,32.61,1.6,65,39,90.11,57.4,13.39,9.9,28.19,18.2,42.69,26.3,95.2,53.1,197.61,73.5,299.11,109,21.8,7.6,62.3,32.8,82.6,33.3,34.5,56.2,58.9,109.8,73.1,174.4-131.9.6-276.2-8.2-403.1-46.3C1928.15,2633.83,1827.05,2579.43,1775.94,2484.43Z"/><path class="cls-6" d="M3825.25,3882.43l4.9,1.1c26.2,27.8,83.7,113.6,101.79,148.4,34.61,66.7,29.21,304.5,6.4,378.2-6.1-71.1,9-178.2-5.5-244.6-2.4-10.8-5.7-18.9-15.5-24.9-5.4-.1-9-.1-13.9,2.9-5.6,3.4-9.2,8-10.5,14.4-4.1,19.8.9,46,2.11,66.5,2.1,36.4,9.6,178.6-1.71,207.7-6,15.4-17.9,32.2-33.2,39.3l-4.3-1.6c-5.2-13.5.9-129.9.6-155.4-.5-35.7,4.61-113-21-138-7.39-2.2-7.6-2.3-14.79.4-6.4,7.6-8.4,15.7-9.4,25.4-2.3,22.3,2,47.1,3.5,69.5,3.8,54.7,11.2,158.7-7,208.2-4.2,11.3-12,25.2-24.2,29.2-8.3,2.6-17.71.7-25.11-3.5-7.89-4.5-13.2-10.3-15.2-19.2,16.5-70.7,15.3-145.6,13.9-217.8-.4-22.7.7-49.5-16.7-66.3-5.8-1.7-8.5-3.1-14,1-4.8,3.6-9.3,11.2-10.6,16.9-4.4,19.6-.9,47.1-.7,67.4.4,48,1.3,97.6-5.7,145.2-3.5,23.8-10.9,56.5-31.9,70.9-6.8,4.6-15,6.5-23,4-60.8-19-60.8-251-63.7-307-1.1-21.3.8-62.1-11.1-79.9-4.5-6.8-6.1-7.3-13.5-9.2-23.7,7.9-29.6,49.7-47.5,68.4-15.4,16.1-37.2,24.9-59.5,25.1-12.1.1-20.3-2.4-28.8-10.9-4.2-9.7-4.3-17.3-.3-27,9.6-22.8,29.1-43.4,41.9-64.8,26-43.7,39.2-94.5,50.9-143.5,6.6.2,13.2.4,19.7.4s13.2-.1,19.7-.3,13.2-.6,19.7-1,13.1-1,19.7-1.7,13.1-1.5,19.6-2.4,13-2,19.5-3.1,12.9-2.4,19.4-3.8,12.8-2.9,19.2-4.5,12.7-3.3,19.1-5.2,12.6-3.8,18.9-5.8,12.5-4.2,18.6-6.5,12.3-4.7,18.4-7.2,12.1-5.1,18.1-7.8,11.9-5.5,17.8-8.5,11.7-6,17.5-9.1C3813.84,3889,3819.65,3885.83,3825.25,3882.43Z"/><path class="cls-10" d="M2668.35,4195.33c73.6-1.5,179.6-27.4,248.2-55.4,29.89-12.2,62.5-32.5,93.8-38.8l3,6.3-.5,347.3c0,51.1,6.3,122.7-3.5,171.2-7.4,36.1-27.8,72.7-53.7,98.8-46,46.3-113.9,69.3-178.3,69.3-38.7,0-76.11-8.7-112-22.8C2674.55,4581.63,2668.44,4385.73,2668.35,4195.33Z"/><path class="cls-10" d="M1899.94,4100c111.3,54.4,222.8,86.8,346.4,98.3L2246,4594c.1,52.3-5.2,127.3,2.5,177.7-34.4,13.2-67.4,21.4-104.3,22.8-68,2.6-132.9-16.5-183.2-63.6-36.4-34.1-60.5-80.3-61.8-130.6,3.2-58.6,1.1-118.2,1.2-176.9Z"/><path class="cls-6" d="M298.75,787.13c9.6-.1,21.2.9,30.2,4.6,53.2,22,135.7,283.5,160.2,348.3,4.4,11.7,9.5,30.6,22.9,34.3,6.9,1.9,10,.6,15.9-2.2,6.4-8.6,7.69-17.2,6.19-27.7-2.3-16.5-11.59-35.5-17.29-51.3-16.8-46.3-76.1-185.9-79.71-223.2-1.5-16,5.1-35.3,15.6-47.3a49.72,49.72,0,0,1,8.2-7.7c1.5-1.1,3.1-2.2,4.7-3.2a50.48,50.48,0,0,1,10.21-4.8c1.79-.6,3.59-1.1,5.4-1.6a51.64,51.64,0,0,1,11.1-1.4,54.45,54.45,0,0,1,45.7,22.2c17.9,24.6,25.4,70,33.69,99,12.6,44.2,70.81,269.7,93,285.7,6.5,4.7,9.31,3.8,16.4,2.3,37.1-28.9,33.31-118.7,60.41-159.8,6.59-10,16.3-14.1,27.8-16.3,13.7-2.6,32.5,1.7,43.8,10,11.9,8.8,17.8,23.5,19.5,37.8,3.8,31.8-40.1,166.9-47,214.7s3,98.2-9.3,145.8c-9,34.7-28.7,68.8-51.2,96.4-54,66.3-134.8,114.8-220.8,123-65.3,6.2-111.8-20.5-160.6-60.5a355.56,355.56,0,0,1-61.6-69.7c-44-64.6-80.3-138.1-119.1-206.1-26.9-47.1-111.5-177-120.6-218.3-2.1-9.6,1-19.3,6.4-27.2,9.4-13.8,27.1-25.7,43.7-28.6,14.2-2.5,28.4,2,39.3,11.3,16.5,14.2,86,135.5,101.3,163,11.4,20.5,20.3,45.6,39.9,59.5,8.4,2,13.4-.9,20.9-4.3,5.3-6.8,7.3-10.2,4.9-19.3-4.8-18.3-20.5-38.2-30.1-54.7l-105.7-179.1c-14.9-25.5-35.6-55-45.3-82.6-3.9-11-5.7-23.6-2.5-35,3.6-12.9,14-24.5,25.5-30.9,15.3-8.5,35.3-8.7,51.6-3.3a62,62,0,0,1,29.5,20.3c20.7,25.4,34.2,58.8,49,88,33.1,64.9,64.3,131,97.8,195.7,5.9,11.4,16,35.7,29.8,37.3,7.5.9,11.2-2.5,16.8-6.6,4.1-9.6,3.7-16.4.8-26.1-7.2-24.1-22.9-48.2-34.1-70.7q-41.85-84.6-85.1-168.3c-16.7-32.6-36.7-66.3-48.5-100.9-.3-1-.7-2-1-3,1.6-5,3.3-9.8,5.3-14.7C262.45,806.33,274.85,796.73,298.75,787.13Z"/><path class="cls-3" d="M3267.94,2494c273.8,241.1,469.3,641.8,537,996.5,9.11,47.7,18.9,96.4,22.3,144.9,2.6,38.2-5.7,72.5-31.6,101.6-51.6,58-159.8,82.4-233.8,86.3l-9.8-2.8c-3.5-5.2-26.1-230.3-30.8-258.6-30.7-185.1-80.4-407.3-159.6-578.1-7.7-16.7-1.2-32.5-7.1-48.6,0-8.9,1.5-17.9-4.4-25.2-11-5.8-27.3-2.7-39.5-2-.5,148.6-20.5,294.8-45,441.1-30.6,182.7-68.9,360.7-120.4,538.8-182.8,111.9-459.2,142.8-669.6,141.8l1.3-545.1v-165.8c0-27.2-1.7-55.3.2-82.4,5.2-43.7,1.3-91.4,1.3-135.6v-264c137.6,1.1,249.2-.7,383.5-35.9C3060.35,2748.93,3164.85,2671,3267.94,2494Z"/><path class="cls-3" d="M850.74,1621.63c52.7,73,97.5,151.6,149.9,225,156.91,219.3,368.3,418.9,644,464,12.8,2,25.6,4,38.5,5.9.4,99.5,37.7,183.6,104.2,257.2,2.2,36.6,54.7,91.2,80.6,114.4,149.3,133.7,372.7,150.2,564,151.4l1.3,1189.1c-185.3-3.5-370.1-24-542.9-94.3-38.1-15.5-77.3-32.8-111.6-55.5-46.9-128.6-73.8-265.1-100.8-399-32.5-160.8-64.2-322.1-74.4-486.2-.6-9.8-1.5-70.3-8.6-73.7-8-3.8-19.1-2.7-27.8-2.5-30.9-1.9-75.9-29.3-104-43.4q-73.35-36.45-144.3-77.2t-139.4-85.7q-68.4-45-134-93.9t-128.2-101.7c-22.2-18.7-149.9-141-155-142.7-3.1-1-6.4-1-9.6-1.5-131.8-160-243.5-351.2-308-548.6q6.45,0,12.9-.3t12.9-.6l12.9-.9,12.9-1.2c4.3-.5,8.6-1,12.8-1.6s8.5-1.2,12.8-1.9,8.5-1.4,12.7-2.2,8.5-1.6,12.7-2.5,8.4-1.8,12.6-2.8,8.4-2,12.5-3.1,8.3-2.2,12.4-3.4,8.3-2.4,12.4-3.7,8.2-2.6,12.3-4,8.1-2.8,12.2-4.3,8.1-3,12-4.6,8-3.2,11.9-4.9,7.9-3.4,11.8-5.2,7.8-3.6,11.7-5.5,7.7-3.8,11.5-5.8,7.6-4,11.4-6.1,7.5-4.2,11.2-6.4l11.1-6.6c3.7-2.3,7.3-4.6,10.9-6.9s7.2-4.7,10.7-7.2,7.1-4.9,10.6-7.4,6.9-5.1,10.4-7.7,6.8-5.3,10.2-8,6.69-5.4,10-8.2,6.5-5.6,9.8-8.5l9.6-8.7c3.1-2.9,6.3-5.9,9.3-8.9s6.1-6.1,9.1-9.2C827.55,1650.73,839.35,1636.23,850.74,1621.63Z"/><path class="cls-4" d="M2842.85,936.83c9.39.2,33.2,60.3,38.39,71.3,86.2,183.5,246.5,331.8,388.81,471.4.19,148-12.81,310.9-67.4,449.4-70.2,178.1-209.8,331.6-386.2,408.1-209.5,90.8-478.1,88-689.3,4-22.7-9-44.9-19.1-66.7-30.1s-43.1-23-63.8-35.9c-180.9-113.3-299-285-346.2-492.3-14.7-64.8-33-211.4-18.8-275,6.4-28.6,117.7-234.8,141.3-272.5,58.3-7.6,117.4-8.2,176-16.7C2255.35,1174.53,2571.05,1087.53,2842.85,936.83Z"/><path class="cls-6" d="M2830.94,998.23c10.7,8.3,66.4,125.1,84.2,150.4,41.8,59.4,86.8,118.1,134.8,172.6,40.2,45.6,87.7,89.6,121.5,140,.8,160.8-27.8,337.8-97.5,483.4-78.5,164.2-200.7,290.1-374.89,350.9-186.5,65.1-415.7,51-593.61-34.2a779.09,779.09,0,0,1-117.7-66.5c-154.69-105.7-250.19-275.8-284-458-10.6-57.3-26.69-208.1-12.3-261.4,6.9-25.5,81.9-159.4,99.8-185.4,30.2-6.9,62.7-8.5,93.61-11.3,53.3-4.8,107.39-9,160.3-17.1C2316.94,1219.83,2593.15,1138.43,2830.94,998.23Z"/><path class="cls-1" d="M2435.35,1646c6-.6,12.1-1.2,18.1-1.4,26.8-.8,51.6,10.2,70.6,28.9,16.2,15.9,30.4,43.4,29,66.5-.6,9.3-4.6,12.1-11.3,17.4-28.2,2-33.1-48-62.1-67.1-.9-.6-1.8-1.2-2.8-1.8-11.5-2.8-23.3-3.9-35.11-2.2-33.6,4.9-38,42.7-55.3,66.5-4.8,2.3-6.7,4.3-12.3,3.4-7.2-1.2-13.5-5-16.7-11.9-5.2-11,1.11-28.2,5.8-38.3C2378.35,1673.93,2402.74,1657.33,2435.35,1646Z"/><path class="cls-1" d="M2025.35,1276.43c17-1.4,33.8-2.1,50.8.1,50.6,6.5,94.1,30.1,125.4,70.3-64.11-18.5-118-19.6-183.61-8-49.6,12.2-96.1,32-142.6,52.7a262,262,0,0,1,25.6-41.7C1932.94,1306.63,1972.05,1283.93,2025.35,1276.43Z"/><path class="cls-1" d="M2840.65,1273.53c38-3.9,78.8,3.9,111.3,24.2,42.7,26.7,62.6,66.6,74,113.9-25-24.5-52.4-41.2-83.8-56.4-81.4-33.5-149.6-27.3-233.6-9.9C2746.85,1302.13,2783.65,1281.33,2840.65,1273.53Z"/><path class="cls-1" d="M2254.35,1942.33c26.89,3.3,42.1,33.7,63,49.2,31.89,23.7,76.3,36.2,115.39,40,51.7,5,122.81-5.1,164.2-39,16.3-13.3,28.4-33,45.2-45.2,6.2-4.5,12.3-4.4,19.6-3.4,6,5.1,9.2,8.8,10.61,16.8,1.7,9.4-3.4,16.1-8.11,23.7-4.5,5.6-9.19,10.9-14.19,16-49.9,51.2-118.61,71.3-188.81,71.7-72.3.4-152.8-22.6-204.19-76.1-9.11-9.4-17.9-23.3-15.81-37.1C2242.44,1951,2248.55,1947,2254.35,1942.33Z"/><path class="cls-11" d="M2864.44,1383.53c32.8-.6,66.7,6.8,95.3,23.1,2.31,1.4,4.7,2.8,6.9,4.3s4.5,3,6.7,4.6,4.4,3.2,6.5,4.9,4.2,3.5,6.2,5.3,4,3.7,5.9,5.6,3.8,3.9,5.6,5.9,3.6,4,5.3,6.1,3.4,4.2,5,6.4,3.2,4.4,4.7,6.6,3,4.5,4.4,6.9,2.7,4.7,4,7.1,2.5,4.8,3.6,7.3,2.2,4.9,3.3,7.4,2,5,2.9,7.6,1.7,5.1,2.5,7.7,1.5,5.2,2.1,7.9c9.7,40.8,3,82.8-19.8,118.2-25.5,39.6-62.8,61.3-107.6,70.9-47.9,3-91.9-1.9-130.8-33.6-31.1-25.3-49.3-62.6-53.7-102-5-44.8,6.8-91.2,36.2-126C2787.85,1402.33,2821.94,1387.83,2864.44,1383.53Z"/><path class="cls-1" d="M2861.65,1457.93c20.2-1.5,39,.6,57.2,9.9a88.44,88.44,0,0,1,7.89,4.6c2.61,1.7,5,3.4,7.4,5.3a78,78,0,0,1,6.8,6.1c2.2,2.1,4.2,4.4,6.2,6.7s3.8,4.8,5.5,7.3a76.82,76.82,0,0,1,4.7,7.8c1.4,2.7,2.7,5.4,3.9,8.3a67.42,67.42,0,0,1,3,8.6c.5,1.6.9,3.2,1.3,4.9s.7,3.3,1,4.9.6,3.3.8,5,.4,3.3.5,5,.2,3.4.2,5v5c-.1,1.7-.1,3.4-.3,5s-.3,3.3-.5,5-.5,3.3-.8,5-.7,3.3-1,4.9a44.35,44.35,0,0,1-1.3,4.9l-1.5,4.8c-.6,1.6-1.2,3.2-1.8,4.7s-1.3,3.1-2,4.6-1.5,3-2.3,4.5-1.6,3-2.5,4.4c-14.4,23.8-34.8,35-60.9,42.1-21.8,1.2-40.7-.3-60.5-10.4a91.65,91.65,0,0,1-8-4.6q-3.9-2.55-7.5-5.4c-2.4-1.9-4.7-4-6.9-6.1a92,92,0,0,1-11.7-14.2,91.22,91.22,0,0,1-4.7-7.9c-1.4-2.7-2.7-5.5-3.9-8.3s-2.1-5.7-3-8.7a76.57,76.57,0,0,1-2.1-9.1,97.43,97.43,0,0,1-1.5-18.7c.1-3.1.3-6.2.6-9.4s.9-6.2,1.5-9.3,1.5-6.1,2.4-9.1a93.23,93.23,0,0,1,3.3-8.8,81.57,81.57,0,0,1,4.1-8.4C2810.15,1477.73,2833.74,1466,2861.65,1457.93Z"/><path class="cls-11" d="M2013.55,1383c43.3-3.5,82.89.2,118.6,27.7,31.4,24.1,50.3,61.1,55.6,99.9,6.4,47.4-2.5,98.3-32.7,136.5-26.9,34.1-61.3,48.6-103.2,54.3-34.1,1.5-66.9-2.7-96.9-20.1-38.8-22.6-69.3-63.2-79.5-107.1-9-38.8-.5-78.9,20.6-112.4C1922.74,1419.43,1965.15,1393.43,2013.55,1383Z"/><path class="cls-1" d="M2029.94,1455.43c20.7-.1,39.5,3.5,57.4,14.3,22.4,13.6,37.4,36,43.3,61.4,5.7,24.4,1.8,50.1-11.9,71.3-17.5,27-41.5,36.5-71.3,43.4-24.2.8-45.6-2.4-65.8-16.7-20.4-14.4-34.7-37.6-38.9-62.2-.5-3.2-.89-6.4-1.1-9.6s-.2-6.5-.1-9.7a79.5,79.5,0,0,1,.9-9.7c.5-3.2,1.1-6.4,1.8-9.5s1.7-6.2,2.8-9.3,2.3-6,3.7-9,2.9-5.8,4.6-8.6,3.5-5.5,5.4-8.1C1978.44,1469.83,2001.65,1460.13,2029.94,1455.43Z"/><path class="cls-12" d="M1482.85,1435.83l-9.7,1.4-3-4.3c-4.5-72.2-.3-146.4,0-218.8.7-173.1-9.1-356.6,43.6-523.8,73.4-233,243.6-414.9,458.3-526,234.19-121.3,533.39-159.2,786.5-78.1,148.6,47.6,274.5,130.8,360.5,262.7,25.8,39.5,46.5,82,68,124,86.39,17.4,164.3,57.5,220.3,127.1,133.89,166.6,99,341.7,74.3,535.3q-17.1,137.1-31.9,274.3l-1.7,34.6c-51.8-3.7-95.2-1.7-145.9,10.6l-2.3-2.6c-40.8-44.8-88.7-84.1-131.1-127.6-91-93.4-180.1-201.6-242.6-316.4-21.4-39.3-38.3-81-57-121.6-71.5,19.5-154.6,73.8-228.2,102.8-214.1,84.4-432.4,149.4-660.4,182.9-75.9,11.2-153.2,20.4-230.11,19.5-29.5,51.9-56.39,105.2-84.39,157.9-20.2,37.9-44.81,76.9-58.81,117.5C1570.65,1441.93,1527.85,1428.13,1482.85,1435.83Z"/><path class="cls-13" d="M1644.65,1102.73a918.27,918.27,0,0,0,99.4,8c341.3,8,786.89-155.7,1063.39-351.2,51.11-36.1,97.8-76.2,143-119.4-13.89,67.8-11.2,132.1,6,199.1,47.5,184.5,186.7,355,336.4,469.4,49.9,38.2,103,69.2,157,101l-1.7,34.6c-51.8-3.7-95.2-1.7-145.9,10.6l-2.3-2.6c-40.8-44.8-88.7-84.1-131.1-127.6-91-93.4-180.1-201.6-242.6-316.4-21.4-39.3-38.3-81-57-121.6-71.5,19.5-154.6,73.8-228.2,102.8-214.1,84.4-432.4,149.4-660.4,182.9-75.9,11.2-153.2,20.4-230.1,19.5-29.5,51.9-56.4,105.2-84.4,157.9-20.2,37.9-44.8,76.9-58.8,117.5-36.8-25.4-79.6-39.2-124.6-31.6Q1566.59,1270.78,1644.65,1102.73Z"/></g></g></svg>